<?xml version="1.0" encoding="UTF-8"?>
<!-- Generator: Adobe Illustrator 22.1.0, SVG Export Plug-In . SVG Version: 6.00 Build 0)  -->
<svg version="1.1" id="Layer_1" xmlns="http://www.w3.org/2000/svg" xmlns:xlink="http://www.w3.org/1999/xlink" x="0px" y="0px" viewBox="0 0 277.3 90" style="enable-background:new 0 0 277.3 90;" xml:space="preserve">
<style type="text/css">
	.st0{fill:#323648;}
	.st1{fill:#FB505D;}
	.st2{fill:none;}
	.st3{fill:#FFFFFF;}
</style>
<g>
	<path class="st0" d="M141.8,29c-2.5-2-5.8-3.3-9.4-3.3c-8.7,0-15.8,7.3-15.8,16.8c0,4.4,1.6,8.4,4,11.3c2.9,3.4,7.3,5.5,12.1,5.5   c3.3,0,6.4-1,9-3.3v2.5h8.3V26.4h-8.3L141.8,29L141.8,29z M141.4,47.4c-1.6,2.4-4.5,3.9-7.7,3.9c-4.8,0-8.5-3.8-8.5-8.7   c0-4.6,3.3-8.9,8.3-8.9c3.4,0,6.2,1.6,8,3.9L141.4,47.4L141.4,47.4z"/>
	<path class="st0" d="M175.4,25.9c-3.7,0-6.8,1.2-9.4,3.3v-2.6h-8.3v48.1h8.6V56.4c2.6,2,5.4,2.9,8.6,2.9c4.7,0,9.3-2.1,12.1-5.5   c2.5-2.9,4-6.8,4-11.3C191.2,33.1,184.2,25.9,175.4,25.9z M174.1,51.3c-3.3,0-6.2-1.6-7.7-3.9v-9.5c1.8-2.4,4.6-3.9,8-3.9   c5,0,8.3,4.1,8.3,8.9C182.6,47.6,178.9,51.3,174.1,51.3z"/>
	<path class="st0" d="M204.6,29.7v-3.3h-8.3v32.2h8.6V38.4c1.1-1.9,4-4.6,7.8-4.6c1.3,0,2.5,0.1,3.1,0.3l1-8.1   c-1-0.1-1.6-0.2-2.9-0.2C210.1,25.9,206.5,27.3,204.6,29.7z"/>
	<path class="st0" d="M233.2,25.9c-9.5,0-15.7,7.8-15.7,16.8c0,10.1,7.2,16.7,16.9,16.7c4.9,0,10.1-2,13.2-5.8l-4.9-4.9   c-1.5,1.6-4.4,3.8-8.1,3.8c-4.6,0-8.2-3.1-8.7-7.6h22.2c0.1-0.8,0.2-1.6,0.2-2.5C248.4,33.4,242.1,25.9,233.2,25.9z M226.3,38.4   c0.4-2.9,3.4-5.6,6.8-5.6c3.6,0,6.2,2.8,6.4,5.6H226.3z"/>
	<path class="st0" d="M260.7,35.7c0-1.6,1.9-2.6,4.4-2.6c2.4,0,4.5,1,6.2,2.1l4-6.3c-2.1-1.6-6.6-3.3-10.9-3.3   c-6.4,0-12.3,3.9-12.3,10c0,10.3,15.6,8.6,15.6,13.5c0,1.6-1.8,2.7-4,2.7c-3.3,0-6.6-1.2-8.9-3.3l-4.1,6.2   c3.8,2.8,8.5,4.3,12.9,4.3c6.7,0,12.8-3.8,12.8-10C276.3,38.2,260.7,39.9,260.7,35.7z"/>
</g>
<path class="st1" d="M80.6,0.2H11.4C5.8,0.2,1.2,4.8,1.2,10.5v69.1c0,5.6,4.5,10.2,10.2,10.2h69.2c5.6,0,10.2-4.5,10.2-10.2V10.5  C90.8,4.9,86.3,0.2,80.6,0.2z M62.6,45.1L62.6,45.1c-0.1,0.1-0.1,0.2-0.2,0.3c-0.1,0.2-0.3,0.4-0.4,0.6c-0.1,0.1-0.2,0.2-0.2,0.3  c-0.2,0.2-0.3,0.5-0.5,0.7c0,0.1-0.1,0.1-0.1,0.1c-0.1,0.1-0.1,0.2-0.2,0.3c-0.1,0.1-0.1,0.1-0.2,0.2c-0.2,0.3-0.5,0.6-0.7,0.9  c-1.2,1.4-2.4,2.6-3.9,4c-0.6,0.6-1.3,1.2-2,1.8c-0.3,0.3-0.7,0.6-1.2,0.9c-0.1,0.1-0.3,0.2-0.4,0.3c0,0,0,0-0.1,0.1l0,0  c-0.3,0.3-0.7,0.6-1.1,0.8c-1.7,1.4-3.3,2.5-4.8,3.7c-1.6,1.2-3.2,2.1-4.5,2.9c-1.5,0.8-2.7,1.5-3.8,1.8h-0.1l-6.9-5.7l1.3-1.5  l10.8-13L32.5,32l-1.3-1.5l6.9-5.7h0.1c1.1,0.4,2.3,0.9,3.8,1.8c1.5,0.8,2.9,1.8,4.5,2.9c1.6,1.2,3.3,2.4,4.8,3.7  c0.3,0.3,0.7,0.6,1.1,0.8l0,0c0,0,0,0,0.1,0.1s0.3,0.2,0.4,0.3c0.4,0.3,0.7,0.6,1.2,0.9c0.6,0.6,1.4,1.2,2,1.8  c1.5,1.4,2.7,2.7,3.9,4c0.3,0.3,0.5,0.6,0.7,0.9c0.1,0.1,0.1,0.1,0.2,0.2c0.1,0.1,0.1,0.2,0.2,0.3c0,0.1,0.1,0.1,0.1,0.1  c0.2,0.2,0.4,0.5,0.5,0.7c0.1,0.1,0.2,0.2,0.2,0.3c0.1,0.2,0.3,0.4,0.4,0.6C62.5,44.8,62.6,45,62.6,45.1L62.6,45.1L62.6,45.1  L62.6,45.1z"/>
<g>
	<path class="st2" d="M435.1-6.5c0.2,0.3,0.5,0.7,0.7,1C435.6-5.8,435.3-6.2,435.1-6.5z"/>
	<path class="st2" d="M433.3-8.9c0.1,0.1,0.2,0.3,0.3,0.4C433.5-8.6,433.4-8.8,433.3-8.9z"/>
	<polygon class="st2" points="388.6,15.3 405.6,-5 388.7,-25.3 405.6,-5 388.6,15.3 386.6,17.7 397.4,26.6 397.4,26.6 386.6,17.7     "/>
	<path class="st3" d="M435.1-6.5c-0.1-0.2-0.3-0.4-0.4-0.6c-0.3-0.4-0.6-0.8-0.9-1.2c-0.1,0-0.1-0.1-0.2-0.2   c-0.1-0.1-0.2-0.3-0.3-0.4c-0.1-0.1-0.2-0.2-0.3-0.3c-0.4-0.4-0.8-0.9-1.2-1.4c-1.8-2.1-3.8-4.2-6.1-6.3c-1-1-2-1.9-3.1-2.8   c-0.6-0.5-1.2-1-1.8-1.5c-0.3-0.2-0.5-0.4-0.7-0.6l-0.1-0.1c-0.6-0.5-1.1-0.9-1.7-1.4c-2.6-2.1-5.1-4-7.6-5.8   c-2.5-1.7-4.8-3.3-7.1-4.6c-2.3-1.4-4.2-2.3-5.9-2.9h-0.2l-10.8,8.9l2,2.4L405.6-5l-17,20.3l-2,2.4l10.8,8.9h0.2   c0.9-0.3,1.8-0.7,2.7-1.2c1-0.5,2-1.1,3.2-1.7c2.2-1.3,4.6-2.8,7.1-4.6c2.5-1.8,5-3.7,7.6-5.8c0.6-0.5,1.1-0.9,1.7-1.4l0.1-0.1   c0.3-0.2,0.5-0.4,0.7-0.6c0.6-0.5,1.2-1,1.8-1.5c0.6-0.5,1.1-1,1.6-1.4c0.5-0.5,1-0.9,1.5-1.4c1.1-1.1,2.2-2.1,3.2-3.2   c1-1,2-2.1,2.9-3.2c0.4-0.5,0.8-0.9,1.2-1.4c0.1-0.1,0.2-0.2,0.3-0.3c0.1-0.1,0.2-0.3,0.3-0.4c0.1,0,0.1-0.1,0.2-0.2   c0.3-0.4,0.6-0.8,0.9-1.2c0.1-0.1,0.1-0.2,0.2-0.3s0.1-0.2,0.2-0.3c0.3-0.3,0.5-0.7,0.7-1c0.1-0.2,0.2-0.3,0.3-0.5   c-0.1-0.2-0.2-0.4-0.2-0.5C435.6-5.8,435.3-6.2,435.1-6.5z"/>
	<path class="st1" d="M464.1-75H355.8c-8.8,0-15.9,7.1-15.9,15.9V49c0,8.8,7.1,15.9,15.9,15.9h108.3c8.8,0,15.9-7.1,15.9-15.9V-59.1   C480.1-67.9,472.9-75,464.1-75z M435.7-4.5c-0.2,0.3-0.4,0.7-0.7,1c0,0.1-0.1,0.2-0.2,0.3s-0.1,0.2-0.2,0.3   c-0.3,0.4-0.6,0.8-0.9,1.2c-0.1,0.1-0.1,0.2-0.2,0.2c-0.1,0.1-0.2,0.3-0.3,0.4c-0.1,0.1-0.2,0.2-0.3,0.3c-0.4,0.5-0.8,0.9-1.2,1.4   c-0.9,1-1.9,2.1-2.9,3.2s-2.1,2.1-3.2,3.2c-0.5,0.4-1,0.9-1.5,1.4s-1,0.9-1.6,1.4s-1.2,1-1.8,1.5c-0.2,0.2-0.4,0.4-0.7,0.6   l-0.1,0.1c-0.6,0.5-1.1,0.9-1.7,1.4c-2.6,2.1-5.1,4-7.6,5.8c-2.5,1.8-4.9,3.3-7.1,4.6c-1.1,0.6-2.2,1.2-3.2,1.7s-1.9,0.9-2.7,1.2   h-0.2l0,0l-10.8-8.9l2-2.4l17-20.3l-16.9-20.3l-2-2.4l10.8-8.9h0.2c1.7,0.6,3.6,1.5,5.9,2.9c2.3,1.3,4.6,2.9,7.1,4.6   c2.5,1.8,5,3.7,7.6,5.8c0.6,0.5,1.1,0.9,1.7,1.4l0.1,0.1c0.2,0.2,0.4,0.4,0.7,0.6c0.6,0.5,1.2,1,1.8,1.5c1.1,0.9,2.1,1.8,3.1,2.8   c2.3,2.1,4.3,4.2,6.1,6.3c0.4,0.5,0.8,1,1.2,1.4c0.1,0.1,0.2,0.2,0.3,0.3c0.1,0.1,0.2,0.3,0.3,0.4s0.1,0.2,0.2,0.2   c0.3,0.4,0.6,0.8,0.9,1.2c0.1,0.2,0.3,0.4,0.4,0.6c0.2,0.3,0.5,0.7,0.7,1c0,0.1,0.1,0.3,0.2,0.5C435.9-4.8,435.8-4.7,435.7-4.5z"/>
</g>
<rect x="119.9" y="-134" class="st0" width="68.1" height="56.8"/>
<rect x="51.8" y="-134" class="st1" width="68.1" height="56.8"/>
</svg>