<?xml version="1.0" encoding="utf-8"?>
<!-- Generator: Adobe Illustrator 22.1.0, SVG Export Plug-In . SVG Version: 6.00 Build 0)  -->
<svg version="1.1" id="Layer_1" xmlns="http://www.w3.org/2000/svg" xmlns:xlink="http://www.w3.org/1999/xlink" x="0px" y="0px"
	 viewBox="0 0 50 50" style="enable-background:new 0 0 50 50;" xml:space="preserve">
<style type="text/css">
	.st0{fill:#040C11;}
	.st1{fill:#FB505D;}
</style>
<g>
	<path class="st0" d="M-105,38.8l14.9,7.5h0.1c0,0,0,0,0-0.1V14.4L-105,38.8z"/>
	<polygon class="st0" points="-105.9,3.7 -116.5,20.8 -106.3,37.4 -90.4,11.5 	"/>
	<polygon class="st0" points="-122.7,30 -108.9,36.9 -122.7,14.4 	"/>
	<path class="st0" d="M-140,38.1c0,0.2,0.2,0.6,0.4,0.7l14.9,7.5h0.1c0,0,0,0,0-0.1V11.7L-140,3.9V38.1z"/>
</g>
<path class="st1" d="M36.3,16.5h-7.6v-5c0-1.9,1.2-2.3,2.1-2.3s5.4,0,5.4,0V0.9h-7.4C20.5,0.8,18.6,7,18.6,11v5.5h-4.8V25h4.8
	c0,10.9,0,24.1,0,24.1h10c0,0,0-13.3,0-24.1h6.8L36.3,16.5z"/>
<path class="st0" d="M-20.3,9.7c-1.8,0.8-3.8,1.3-5.8,1.6c2.1-1.2,3.7-3.2,4.4-5.6c-2,1.2-4.1,2-6.4,2.5C-30,6.2-32.6,5-35.5,5
	c-5.6,0-10.1,4.5-10.1,10.1c0,0.8,0.1,1.6,0.3,2.3C-53.7,17-61.2,13-66.2,6.8c-0.9,1.5-1.4,3.2-1.4,5.1c0,3.5,1.8,6.6,4.5,8.4
	c-1.7-0.1-3.2-0.5-4.6-1.3v0.1c0,4.9,3.5,9,8.1,9.9c-0.8,0.2-1.7,0.4-2.7,0.4c-0.7,0-1.3-0.1-1.9-0.2c1.3,4,5,6.9,9.4,7
	c-3.5,2.7-7.8,4.3-12.6,4.3c-0.8,0-1.6,0-2.4-0.1c4.5,2.9,9.8,4.5,15.5,4.5c18.6,0,28.8-15.4,28.8-28.8c0-0.4,0-0.9,0-1.3
	C-23.4,13.5-21.7,11.8-20.3,9.7z"/>
</svg>
