<?xml version="1.0" encoding="utf-8"?>
<!-- Generator: Adobe Illustrator 22.1.0, SVG Export Plug-In . SVG Version: 6.00 Build 0)  -->
<svg version="1.1" id="Layer_1" xmlns="http://www.w3.org/2000/svg" xmlns:xlink="http://www.w3.org/1999/xlink" x="0px" y="0px"
	 viewBox="0 0 50 50" style="enable-background:new 0 0 50 50;" xml:space="preserve">
<style type="text/css">
	.st0{fill:#FB505D;}
	.st1{fill:#040C11;}
</style>
<g>
	<path class="st0" d="M35,38.8l15,7.5h0.1c0,0,0,0,0-0.1V14.4L35,38.8z"/>
	<polygon class="st0" points="34.1,3.7 23.5,20.8 33.7,37.4 49.6,11.5 	"/>
	<polygon class="st0" points="17.3,30 31.1,36.9 17.3,14.4 	"/>
	<path class="st0" d="M0,38.1c0,0.2,0.2,0.6,0.4,0.7l14.9,7.5h0.1c0,0,0,0,0-0.1V11.7L0,3.9V38.1z"/>
</g>
<path class="st1" d="M176.3,16.5h-7.6v-5c0-1.9,1.2-2.3,2.1-2.3c0.9,0,5.4,0,5.4,0V0.9h-7.4c-8.2,0-10.1,6.2-10.1,10.1v5.5h-4.8V25
	h4.8c0,10.9,0,24.1,0,24.1h10c0,0,0-13.3,0-24.1h6.8L176.3,16.5z"/>
<path class="st1" d="M119.7,9.7c-1.8,0.8-3.8,1.3-5.8,1.6c2.1-1.2,3.7-3.2,4.4-5.6c-2,1.2-4.1,2-6.4,2.5c-1.8-2-4.5-3.2-7.4-3.2
	c-5.6,0-10.1,4.5-10.1,10.1c0,0.8,0.1,1.6,0.3,2.3C86.3,17,78.8,13,73.8,6.8c-0.9,1.5-1.4,3.2-1.4,5.1c0,3.5,1.8,6.6,4.5,8.4
	c-1.7-0.1-3.2-0.5-4.6-1.3v0.1c0,4.9,3.5,9,8.1,9.9c-0.8,0.2-1.7,0.4-2.7,0.4c-0.7,0-1.3-0.1-1.9-0.2c1.3,4,5,6.9,9.4,7
	c-3.5,2.7-7.8,4.3-12.6,4.3c-0.8,0-1.6,0-2.4-0.1c4.5,2.9,9.8,4.5,15.5,4.5c18.6,0,28.8-15.4,28.8-28.8c0-0.4,0-0.9,0-1.3
	C116.6,13.5,118.3,11.8,119.7,9.7z"/>
</svg>
